<svg xmlns="http://www.w3.org/2000/svg" viewBox="0 0 48 48" width="48" height="48"><title>calendar grid 61</title><g class="nc-icon-wrapper" fill="#3993f9"><polygon data-color="color-2" fill="none" stroke="#3993f9" stroke-width="2" stroke-linecap="square" stroke-miterlimit="10" points=" 28,24 20,24 12,24 12,32 12,40 20,40 28,40 28,32 36,32 36,24 " stroke-linejoin="miter"/> <line data-color="color-2" fill="none" stroke="#3993f9" stroke-width="2" stroke-linecap="square" stroke-miterlimit="10" x1="20" y1="24" x2="20" y2="40" stroke-linejoin="miter"/> <polyline data-color="color-2" fill="none" stroke="#3993f9" stroke-width="2" stroke-linecap="square" stroke-miterlimit="10" points=" 28,24 28,32 12,32 " stroke-linejoin="miter"/> <polyline fill="none" stroke="#3993f9" stroke-width="2" stroke-linecap="square" stroke-miterlimit="10" points="38,6 46,6 46,46 2,46 2,6 10,6 " stroke-linejoin="miter"/> <line fill="none" stroke="#3993f9" stroke-width="2" stroke-linecap="square" stroke-miterlimit="10" x1="16" y1="6" x2="32" y2="6" stroke-linejoin="miter"/> <line fill="none" stroke="#3993f9" stroke-width="2" stroke-linecap="square" stroke-miterlimit="10" x1="2" y1="18" x2="46" y2="18" stroke-linejoin="miter"/> <rect data-color="color-2" x="10" y="2" fill="none" stroke="#3993f9" stroke-width="2" stroke-linecap="square" stroke-miterlimit="10" width="6" height="10" stroke-linejoin="miter"/> <rect data-color="color-2" x="32" y="2" fill="none" stroke="#3993f9" stroke-width="2" stroke-linecap="square" stroke-miterlimit="10" width="6" height="10" stroke-linejoin="miter"/></g></svg>